<?xml version="1.0" encoding="utf-8"?>
<!-- Generator: Adobe Illustrator 27.3.1, SVG Export Plug-In . SVG Version: 6.00 Build 0)  -->
<svg version="1.1" id="Layer_1" xmlns="http://www.w3.org/2000/svg" xmlns:xlink="http://www.w3.org/1999/xlink" x="0px" y="0px"
	 viewBox="0 0 256 256" style="enable-background:new 0 0 256 256;" xml:space="preserve">
<style type="text/css">
	.st0{fill:#FFFFFF;}
</style>
<g>
	<g>
		<path class="st0" d="M246,128.8c0,56.1-39.2,103-91.7,115v-98h28.4V113H154v-7.3c0-14,6.1-25.4,20.8-25.4c5.9,0,10.5,0.9,14.3,2
			l1.7-34.2c-6.1-1.8-13.7-2.9-23.7-2.9c-12.9,0-28.4,3.8-39.4,14.3c-12.9,11.7-18.1,30.7-18.1,47.9v5.6H90.9v32.8h18.7v99.5
			c-56.4-9-99.6-57.6-99.6-116.5c0-65.2,52.8-118,118-118C193.2,10.8,246,63.6,246,128.8z"/>
	</g>
</g>
</svg>
